PathFileType	4	(X/Y/Z)	/Users/niels/Desktop/University/Third Semester/Perception and Action/Exam/Gymnastics Motion Tracking/Code for Gym Tracking/Analyzed Data/Webcam_Backflip/id8_4_pure_Sports2D/id8_4_pure_Sports2D_px_person00.trc
DataRate	CameraRate	NumFrames	NumMarkers	Units	OrigDataRate	OrigDataStartFrame	OrigNumFrames
29.81132075471698	29.81132075471698	10	22	m	29.81132075471698	0	159
Frame#	Time	Hip			RHip			RKnee			RAnkle			RBigToe			RSmallToe			RHeel			LHip			LKnee			LAnkle			LBigToe			LSmallToe			LHeel			Neck			Head			Nose			RShoulder			RElbow			RWrist			LShoulder			LElbow			LWrist		
		X1	Y1	Z1	X2	Y2	Z2	X3	Y3	Z3	X4	Y4	Z4	X5	Y5	Z5	X6	Y6	Z6	X7	Y7	Z7	X8	Y8	Z8	X9	Y9	Z9	X10	Y10	Z10	X11	Y11	Z11	X12	Y12	Z12	X13	Y13	Z13	X14	Y14	Z14	X15	Y15	Z15	X16	Y16	Z16	X17	Y17	Z17	X18	Y18	Z18	X19	Y19	Z19	X20	Y20	Z20	X21	Y21	Z21	X22	Y22	Z22
0	0.0	0.9756250542914622	-0.5964224122221748	0.0	0.9769522745158267	-0.5990742048208133	0.0	0.9677186540184765	-0.691840232448248	0.0	0.9570798177086428	-0.7833032048995597	0.0	0.9902345697917834	-0.805828936468469	0.0	0.9809520247714483	-0.8084828371059047	0.0	0.9531080473428443	-0.8005330589003181	0.0	0.9729801501722637	-0.597745095729037	0.0	0.9663802889349148	-0.6918399720936589	0.0	0.9570791393703842	-0.7793234050875436	0.0	0.9862494413259038	-0.8003847340779886	0.0	0.9822624362045412	-0.7992226550893543	0.0	0.9478017951491394	-0.7939092510253213	0.0	0.9955319083440672	-0.4598958207200242	0.0	1.011438699398939	-0.3975901774983169	0.0	1.0260259561073304	-0.430728627571355	0.0	0.9902237173806674	-0.47846038149779324	0.0	0.9822425261058536	-0.542114039554236	0.0	0.9782419560897466	-0.6017899836114906	0.0	0.9862544344225674	-0.4784576235351343	0.0	0.9782567309361467	-0.5381488907150065	0.0	0.9716065942765572	-0.5898613292303962	0.0
1	0.03354430379746835	0.9764044036660202	-0.591856222127694	0.0	0.9779223803396819	-0.5933604471485956	0.0	0.9695692576455857	-0.6890719224497515	0.0	0.9586256505576572	-0.7821804801430641	0.0	0.9901177295012322	-0.8044238737496004	0.0	0.9807749966108812	-0.8073939847502978	0.0	0.9534878942084861	-0.7985201475325716	0.0	0.9738151028939703	-0.5917963547109756	0.0	0.9687216753745154	-0.6880157151977712	0.0	0.957902071499699	-0.7772459369287593	0.0	0.9870265519572798	-0.798429332312323	0.0	0.9831102146500982	-0.7968763901231407	0.0	0.9491118405771442	-0.7910167831522504	0.0	0.9972867493152202	-0.4579905816446225	0.0	1.013849025148824	-0.3954844405441356	0.0	1.02772731971182	-0.4291223346445092	0.0	0.9923564461947009	-0.47409116688523695	0.0	0.976033160507602	-0.532534147666702	0.0	0.9641545085949039	-0.5882457423972938	0.0	0.9876851007141577	-0.4740661895620296	0.0	0.974209357416404	-0.5272411689760912	0.0	0.9597271620351544	-0.5789167176750722	0.0
2	0.0670886075949367	0.9767710868252539	-0.5867682164738302	0.0	0.978430482113588	-0.5873377098122603	0.0	0.9712816013529668	-0.685914393428746	0.0	0.9600803860118121	-0.7805311607256048	0.0	0.990217900933099	-0.80270206272328	0.0	0.980903702914468	-0.8058955659866238	0.0	0.953881631991782	-0.7960251262115375	0.0	0.973935238594021	-0.5855019824504525	0.0	0.9706827733989113	-0.683782894401785	0.0	0.9586204982083879	-0.7743787972284881	0.0	0.9877570096954544	-0.7958568731405244	0.0	0.9839746617623779	-0.7938752447763046	0.0	0.9501876545021799	-0.787680680653721	0.0	0.9990075552164253	-0.45548260987556344	0.0	1.0164439937978191	-0.3929701215357454	0.0	1.0294729306632402	-0.42704480961841323	0.0	0.99447341748526	-0.46936563558574573	0.0	0.9704866325487757	-0.5224780675959555	0.0	0.9515033120643572	-0.5739299857383802	0.0	0.9888111267795227	-0.46926668703694124	0.0	0.9703956092152195	-0.5158937705059203	0.0	0.9490406190368931	-0.5667125075985477	0.0
3	0.10063291139240506	0.9763724759939049	-0.5809807415105944	0.0	0.9781153057518649	-0.5809326764065308	0.0	0.9727159720179569	-0.6820721380513336	0.0	0.9614152841601843	-0.7779720510188566	0.0	0.9906747950252489	-0.8004001701103497	0.0	0.9815487137832779	-0.8036585572498156	0.0	0.9543315638887938	-0.792719849312001	0.0	0.972907726333959	-0.5787810524340916	0.0	0.9720265286807497	-0.6788484340339114	0.0	0.959180761024441	-0.7701419114067539	0.0	0.9883372159652452	-0.7922930458449897	0.0	0.9847510548471324	-0.7898007133065149	0.0	0.9508564922205577	-0.7836047208796291	0.0	1.000664858365125	-0.4520269800406047	0.0	1.0193259939678168	-0.38982324618509867	0.0	1.031322778662227	-0.42420376641475066	0.0	0.996624922659282	-0.4641340840851138	0.0	0.9661090782969742	-0.5117372411060856	0.0	0.9412894450472259	-0.558417886406989	0.0	0.9895403353242104	-0.4638640538688592	0.0	0.967127765280952	-0.5039322555162543	0.0	0.9405490552679687	-0.552592298525155	0.0
4	0.1341772151898734	0.9750026340221694	-0.5746121013658686	0.0	0.9767843749317097	-0.5742538810191476	0.0	0.9737890111833953	-0.6773730715644358	0.0	0.9626505183344712	-0.7743702478817396	0.0	0.9915067143772323	-0.7973492530571935	0.0	0.9827270454426659	-0.8005208898738507	0.0	0.9548965413597407	-0.7885175182627286	0.0	0.9706974462738625	-0.5717655650957335	0.0	0.9727669469921619	-0.6731082709677745	0.0	0.9596170612995766	-0.7643393074826647	0.0	0.9887137136581817	-0.7877993024287838	0.0	0.9853082053342985	-0.7846265592348165	0.0	0.951080301941067	-0.7787199968774525	0.0	1.0022381530462805	-0.4476132946616666	0.0	1.0224582827807607	-0.3860519936064324	0.0	1.0333378656049366	-0.42055764124300726	0.0	0.9988769981156819	-0.45846906171265345	0.0	0.9631802557694576	-0.500422915750397	0.0	0.9339202169144228	-0.541790794919694	0.0	0.9900786269468552	-0.4579114951946373	0.0	0.9647712872743431	-0.49160698099617006	0.0	0.9347748106158758	-0.5367093841602435	0.0
5	0.16772151898734178	0.9726251733183634	-0.5679084323095727	0.0	0.9744239552939598	-0.5674593572387723	0.0	0.9745700029624563	-0.6718050169017843	0.0	0.963781547375292	-0.7698406319697415	0.0	0.992585532707506	-0.7935058023773622	0.0	0.9842206465435064	-0.7965106420826098	0.0	0.9555742183152715	-0.783542030792097	0.0	0.9675756235935467	-0.5646749454288076	0.0	0.9731832546943188	-0.6666897159253901	0.0	0.9600669432243881	-0.7572727658664177	0.0	0.9890024367767525	-0.7828454065408375	0.0	0.9856488582445968	-0.7787122684580458	0.0	0.9510065474499825	-0.773173090777506	0.0	1.003717632383584	-0.4425686487058848	0.0	1.0257581807522729	-0.38190407898304984	0.0	1.035553704131615	-0.4163502010598306	0.0	1.0012122454806147	-0.45262294985920837	0.0	0.9617011001166423	-0.48891453472850677	0.0	0.9292446656086739	-0.5245813625368317	0.0	0.9908251115466389	-0.4516850458285975	0.0	0.9635486144562356	-0.4795879678306898	0.0	0.9315831138567918	-0.5199049204381162	0.0
6	0.20126582278481012	0.9693640571492653	-0.5612469611620031	0.0	0.971196819291961	-0.5607925148515042	0.0	0.9752901247183214	-0.6655827247198599	0.0	0.9647330493060121	-0.7646752346238375	0.0	0.9936692256610833	-0.7889851905781319	0.0	0.9856715857793806	-0.7918151379882272	0.0	0.9562216763628003	-0.7780496700318339	0.0	0.9639485354288945	-0.5578608575666465	0.0	0.9736758722066841	-0.6599658316669662	0.0	0.9607040029772431	-0.7497276250237176	0.0	0.9894295126609545	-0.7780285589104791	0.0	0.9859009720348465	-0.7726065373641301	0.0	0.9508890783815905	-0.7672886084268784	0.0	1.0050881141363466	-0.4375125718563225	0.0	1.0292061982483283	-0.37785417380697167	0.0	1.0379393585748808	-0.4121046216695876	0.0	1.003497709492821	-0.44703761664363656	0.0	0.9613867251909487	-0.47783477159879784	0.0	0.9266810506121049	-0.507666102701081	0.0	0.9920971009939042	-0.44568223891001885	0.0	0.9633377298422277	-0.46876217641935297	0.0	0.930325623003709	-0.5034840173921157	0.0
7	0.23481012658227846	0.9654633534684248	-0.5551866214285542	0.0	0.9673654184885928	-0.5546904308359395	0.0	0.9762869543521052	-0.6591534448738122	0.0	0.9653761175723702	-0.7592415824224455	0.0	0.9945407633113325	-0.7840282466180499	0.0	0.9867795259181823	-0.786710155709349	0.0	0.9565707295541339	-0.772346376373375	0.0	0.9601859903417015	-0.551854549431656	0.0	0.9746114323304133	-0.6534743598534674	0.0	0.9615852510168033	-0.7427996308591623	0.0	0.9901209347114275	-0.7736286485186581	0.0	0.9861521000525153	-0.7668065866069915	0.0	0.9508881217876454	-0.7615089480489137	0.0	1.0063298166358141	-0.43325538394480223	0.0	1.032834585571512	-0.3745793440297768	0.0	1.0403970487115008	-0.40855277122676426	0.0	1.0055548572242181	-0.44238283485133895	0.0	0.9617300865776924	-0.46803319525347165	0.0	0.9253104782178608	-0.4922097390529904	0.0	0.9939053735711323	-0.44061849691652977	0.0	0.9636461637018053	-0.4598827505284107	0.0	0.930052059545085	-0.48888742643976674	0.0
8	0.2683544303797468	0.9612196677247955	-0.5504145899145275	0.0	0.9631860843374443	-0.5497868554455809	0.0	0.9779085730709031	-0.6531367389511201	0.0	0.9656009804065019	-0.7539247506307516	0.0	0.9951278144684108	-0.7789498452732003	0.0	0.9874418723247969	-0.7815201329620324	0.0	0.9563847131080142	-0.7667575049743542	0.0	0.9565346080624365	-0.5472695824543222	0.0	0.9762499327192026	-0.6477764495441406	0.0	0.9625853005475351	-0.7375444713961266	0.0	0.9909558295416636	-0.7692830475304513	0.0	0.9863193813377553	-0.7617165452441932	0.0	0.9509689725161372	-0.7563066709776679	0.0	1.0074353848992765	-0.4306696200306629	0.0	1.0366311083549569	-0.3728835901264587	0.0	1.0428163850982888	-0.4065153247367378	0.0	1.0072533583424867	-0.43949980718461	0.0	0.9620941073911473	-0.4605312891354223	0.0	0.9239839035476495	-0.4796160962908	0.0	0.9959756024730404	-0.4373365874218122	0.0	0.9637866985244675	-0.45340580465393776	0.0	0.9296566997658082	-0.4773981986216139	0.0
9	0.3018987341772152	0.9569116866594607	-0.5476163918793483	0.0	0.958872709617368	-0.5467947036663627	0.0	0.9803962900251529	-0.6482145822796459	0.0	0.9654004603873891	-0.749155086106051	0.0	0.9955045047963793	-0.7741290219386089	0.0	0.9877524330766849	-0.7766314481794675	0.0	0.9556413566687211	-0.7616537035918646	0.0	0.9531204397362673	-0.5446712201234434	0.0	0.9787070073492243	-0.6433374274632894	0.0	0.9635014227160866	-0.7344527564642935	0.0	0.9916502512155857	-0.7639642270040075	0.0	0.9861942331679164	-0.7577323835220945	0.0	0.9509703073194661	-0.7520859222961043	0.0	1.008406018919908	-0.4305733147609185	0.0	1.040479553719859	-0.37356357110924676	0.0	1.0451056001710246	-0.4067885047460145	0.0	1.0085382415288322	-0.4392312802214061	0.0	0.961793214567904	-0.45642218174240995	0.0	0.921541516720265	-0.47139277859239526	0.0	0.9979592473814992	-0.4366506072419595	0.0	0.9631018689237767	-0.44977179536151013	0.0	0.9280601073218872	-0.47011970949745574	0.0
